<?xml version="1.0" standalone="no"?>
<!DOCTYPE svg PUBLIC "-//W3C//DTD SVG 20010904//EN"
 "http://www.w3.org/TR/2001/REC-SVG-20010904/DTD/svg10.dtd">
<svg version="1.0" xmlns="http://www.w3.org/2000/svg"
 width="2000.000000pt" height="2000.000000pt" viewBox="0 0 2000.000000 2000.000000"
 preserveAspectRatio="xMidYMid meet">
<metadata>
Created by potrace 1.16, written by Peter Selinger 2001-2019
</metadata>
<g transform="translate(0.000000,2000.000000) scale(0.400000,-0.400000)"
fill="#000000" stroke="none">
<path d="M2280 4974 c-91 -9 -296 -45 -389 -69 -442 -112 -813 -325 -1142
-654 -384 -384 -606 -818 -701 -1367 -30 -174 -32 -568 -5 -742 85 -534 311
-989 677 -1366 363 -373 797 -611 1300 -710 721 -143 1473 44 2045 509 121 98
323 307 413 427 231 309 382 646 456 1018 107 541 31 1098 -218 1594 -320 638
-915 1116 -1606 1291 -197 50 -331 66 -565 70 -121 1 -240 1 -265 -1z m1070
-1384 c80 -27 174 -62 210 -78 l65 -29 77 -129 c245 -414 361 -782 388 -1234
10 -160 0 -407 -17 -419 -242 -170 -445 -277 -692 -362 -46 -16 -88 -26 -92
-23 -14 8 -81 110 -127 192 l-41 73 53 23 c88 39 206 100 206 106 0 4 -13 16
-29 28 l-29 21 -70 -29 c-257 -104 -563 -161 -797 -146 -232 15 -482 74 -664
157 l-43 20 -34 -23 c-31 -21 -33 -24 -16 -37 9 -7 68 -38 130 -67 61 -30 112
-56 112 -59 0 -8 -127 -217 -147 -243 -18 -22 -19 -22 -73 -6 -111 32 -323
126 -447 196 -85 49 -126 97 -232 272 l-71 119 0 96 c0 255 49 540 137 801 64
191 190 450 291 599 62 91 57 88 242 157 134 50 381 114 441 114 11 0 30 -28
55 -81 l39 -81 50 7 c176 23 440 23 617 0 l47 -7 42 85 42 84 116 -24 c64 -14
181 -47 261 -73z"/>
<path d="M1905 2666 c-147 -69 -211 -264 -142 -427 24 -57 92 -124 149 -149
247 -107 476 190 344 447 -68 134 -221 190 -351 129z"/>
<path d="M2965 2678 c-70 -25 -124 -78 -163 -158 -21 -46 -26 -70 -26 -140 -1
-72 3 -93 25 -140 53 -110 142 -170 252 -170 116 0 213 71 258 189 30 80 24
196 -15 274 -29 61 -88 116 -149 142 -41 17 -137 19 -182 3z"/>
</g>
</svg>
