<?xml version="1.0" standalone="no"?>
<!DOCTYPE svg PUBLIC "-//W3C//DTD SVG 20010904//EN"
 "http://www.w3.org/TR/2001/REC-SVG-20010904/DTD/svg10.dtd">
<svg version="1.0" xmlns="http://www.w3.org/2000/svg"
 width="2000.000000pt" height="2000.000000pt" viewBox="0 0 2000.000000 2000.000000"
 preserveAspectRatio="xMidYMid meet">
<metadata>
Created by potrace 1.16, written by Peter Selinger 2001-2019
</metadata>
<g transform="translate(0.000000,2000.000000) scale(0.400000,-0.400000)"
fill="#000000" stroke="none">
<path d="M2280 4974 c-91 -9 -296 -45 -389 -69 -442 -112 -813 -325 -1142
-654 -384 -384 -606 -818 -701 -1367 -30 -174 -32 -568 -5 -742 85 -534 311
-989 677 -1366 311 -320 665 -534 1090 -660 79 -23 267 -66 290 -66 7 0 10
287 10 870 l0 870 -315 0 -315 0 0 355 0 355 313 2 312 3 6 380 c5 372 6 382
32 480 123 455 469 678 1012 651 132 -7 358 -29 418 -42 l27 -6 0 -303 0 -303
-212 -4 c-188 -4 -220 -7 -273 -26 -103 -38 -181 -119 -212 -220 -15 -48 -18
-98 -18 -332 l0 -275 343 -3 c188 -1 342 -6 342 -10 0 -4 -24 -162 -53 -352
l-53 -345 -290 -5 -289 -5 -3 -867 c-2 -772 0 -868 13 -868 27 0 208 41 295
66 319 94 621 253 875 459 121 98 323 307 413 427 231 309 382 646 456 1018
107 541 31 1098 -218 1594 -320 638 -915 1116 -1606 1291 -197 50 -331 66
-565 70 -121 1 -240 1 -265 -1z"/>
</g>
</svg>
