<?xml version="1.0" standalone="no"?>
<!DOCTYPE svg PUBLIC "-//W3C//DTD SVG 20010904//EN"
 "http://www.w3.org/TR/2001/REC-SVG-20010904/DTD/svg10.dtd">
<svg version="1.0" xmlns="http://www.w3.org/2000/svg"
 width="2000.000000pt" height="2000.000000pt" viewBox="0 0 2000.000000 2000.000000"
 preserveAspectRatio="xMidYMid meet">
<metadata>
Created by potrace 1.16, written by Peter Selinger 2001-2019
</metadata>
<g transform="translate(0.000000,2000.000000) scale(0.400000,-0.400000)"
fill="#000000" stroke="none">
<path d="M2280 4974 c-91 -9 -296 -45 -389 -69 -442 -112 -813 -325 -1142
-654 -384 -384 -606 -818 -701 -1367 -30 -174 -32 -568 -5 -742 85 -534 311
-989 677 -1366 363 -373 797 -611 1300 -710 721 -143 1473 44 2045 509 121 98
323 307 413 427 231 309 382 646 456 1018 107 541 31 1098 -218 1594 -320 638
-915 1116 -1606 1291 -197 50 -331 66 -565 70 -121 1 -240 1 -265 -1z m1107
-1250 c3 -8 0 -41 -6 -72 -7 -31 -15 -109 -18 -173 l-6 -116 74 -22 c180 -54
275 -84 287 -94 8 -7 12 -51 12 -156 0 -80 3 -170 6 -198 l7 -53 181 -2 181
-3 -4 -179 -3 -179 133 7 c74 3 176 9 228 12 l93 7 -7 -74 c-19 -203 -143
-437 -326 -616 -103 -101 -165 -144 -309 -217 l-125 -63 -332 -7 c-182 -4
-334 -3 -336 1 -3 4 -8 274 -12 598 l-7 590 -46 85 c-81 151 -170 224 -343
280 -125 41 -269 54 -516 46 -199 -7 -316 -21 -491 -58 -86 -18 -103 -25 -107
-42 -11 -47 -41 -312 -37 -324 5 -15 55 -11 177 14 185 38 606 38 717 -1 55
-19 110 -70 140 -128 22 -44 36 -164 24 -212 -9 -36 -39 -44 -200 -56 -235
-16 -475 -75 -618 -151 -76 -41 -191 -147 -239 -222 -65 -99 -82 -156 -88
-296 l-6 -125 -333 -3 -332 -2 0 497 c1 774 14 950 81 1090 74 154 224 339
354 434 33 24 121 75 195 114 l135 70 645 5 c355 3 763 6 908 8 230 2 263 0
269 -14z m-773 -1701 c3 -21 6 -129 6 -240 l0 -203 -32 -30 -31 -30 -275 2
-275 3 -31 50 c-28 45 -31 58 -31 130 0 74 3 85 34 133 72 113 144 147 436
206 39 8 98 15 131 15 l61 1 7 -37z"/>
</g>
</svg>
