<?xml version="1.0" standalone="no"?>
<!DOCTYPE svg PUBLIC "-//W3C//DTD SVG 20010904//EN"
 "http://www.w3.org/TR/2001/REC-SVG-20010904/DTD/svg10.dtd">
<svg version="1.0" xmlns="http://www.w3.org/2000/svg"
 width="2000.000000pt" height="2000.000000pt" viewBox="0 0 2000.000000 2000.000000"
 preserveAspectRatio="xMidYMid meet">
<metadata>
Created by potrace 1.16, written by Peter Selinger 2001-2019
</metadata>
<g transform="translate(0.000000,2000.000000) scale(0.400000,-0.400000)"
fill="#000000" stroke="none">
<path d="M2280 4974 c-25 -3 -101 -14 -169 -25 -410 -65 -779 -223 -1112 -475
-102 -77 -359 -318 -359 -336 0 -5 -22 -35 -49 -66 -217 -253 -425 -675 -491
-997 -51 -252 -53 -273 -54 -555 -1 -274 6 -352 45 -520 124 -536 393 -991
788 -1332 97 -84 231 -187 292 -223 261 -156 446 -238 704 -309 340 -94 759
-107 1115 -35 252 51 386 97 601 203 342 169 602 376 832 661 279 346 445 721
524 1185 25 152 25 580 -1 735 -65 389 -207 743 -420 1045 -336 477 -851 832
-1416 975 -197 50 -331 66 -565 70 -121 1 -240 1 -265 -1z m1078 -864 c210
-28 378 -114 528 -272 107 -113 172 -232 209 -382 39 -163 57 -1039 31 -1521
-10 -176 -23 -326 -32 -362 -75 -310 -324 -558 -644 -639 -93 -24 -463 -38
-970 -38 -534 0 -839 13 -940 39 -334 87 -602 387 -640 715 -32 277 -38 1155
-11 1575 12 178 25 250 65 353 70 178 235 356 412 445 166 84 254 96 744 105
442 8 1126 -2 1248 -18z"/>
<path d="M1870 3890 c-219 -9 -284 -21 -385 -70 -161 -78 -270 -200 -326 -364
-25 -72 -29 -104 -39 -296 -22 -413 -23 -755 -5 -1130 17 -366 24 -418 69
-515 89 -194 295 -342 501 -359 226 -18 667 -28 1041 -23 459 7 636 19 728 48
192 62 353 230 409 429 25 88 51 706 44 1045 -11 497 -24 698 -53 790 -41 131
-107 224 -215 305 -80 60 -173 104 -254 120 -139 26 -1057 38 -1515 20z m1635
-338 c56 -39 78 -82 78 -154 0 -49 -5 -66 -29 -101 -36 -52 -90 -79 -154 -79
-59 0 -101 22 -144 75 -28 35 -31 46 -31 105 0 77 16 108 79 153 33 25 48 29
100 29 50 -1 68 -6 101 -28z m-823 -218 c151 -37 250 -86 357 -177 197 -164
301 -388 301 -642 0 -351 -217 -665 -542 -784 -154 -57 -342 -69 -493 -31
-236 60 -440 222 -549 437 -102 204 -116 451 -35 671 86 236 299 439 529 504
30 9 71 20 90 26 57 16 270 14 342 -4z"/>
<path d="M2360 3101 c-148 -39 -252 -109 -342 -229 -217 -291 -121 -717 201
-886 140 -73 283 -92 425 -56 153 39 258 107 345 225 207 278 139 669 -151
864 -137 92 -321 123 -478 82z"/>
</g>
</svg>
