<?xml version="1.0" standalone="no"?>
<!DOCTYPE svg PUBLIC "-//W3C//DTD SVG 20010904//EN"
 "http://www.w3.org/TR/2001/REC-SVG-20010904/DTD/svg10.dtd">
<svg version="1.0" xmlns="http://www.w3.org/2000/svg"
 width="2000.000000pt" height="2000.000000pt" viewBox="0 0 2000.000000 2000.000000"
 preserveAspectRatio="xMidYMid meet">
<metadata>
Created by potrace 1.16, written by Peter Selinger 2001-2019
</metadata>
<g transform="translate(0.000000,2000.000000) scale(0.400000,-0.400000)"
fill="#000000" stroke="none">
<path d="M2280 4974 c-91 -9 -296 -45 -389 -69 -442 -112 -813 -325 -1142
-654 -384 -384 -606 -818 -701 -1367 -30 -174 -32 -568 -5 -742 85 -534 311
-989 677 -1366 363 -373 797 -611 1300 -710 721 -143 1473 44 2045 509 121 98
323 307 413 427 231 309 382 646 456 1018 107 541 31 1098 -218 1594 -320 638
-915 1116 -1606 1291 -197 50 -331 66 -565 70 -121 1 -240 1 -265 -1z m565
-753 c518 -97 954 -393 1225 -830 168 -270 251 -567 252 -896 1 -333 -70 -601
-227 -861 -69 -114 -83 -130 -257 -311 -175 -181 -447 -341 -759 -446 -169
-57 -254 -75 -419 -88 -135 -11 -175 -10 -315 5 -324 35 -610 117 -811 231
-261 150 -439 341 -592 635 -103 197 -155 338 -207 560 -50 216 -38 485 31
732 60 213 290 602 454 769 263 267 631 449 1040 513 136 22 438 15 585 -13z"/>
<path d="M2975 3876 c94 -95 220 -262 270 -359 l30 -57 225 0 225 0 -80 81
c-187 190 -449 345 -690 408 l-70 18 90 -91z"/>
<path d="M1990 3925 c-225 -76 -451 -223 -640 -419 l-44 -46 210 0 210 0 27
55 c57 117 176 283 281 393 22 23 38 42 36 42 -3 0 -39 -12 -80 -25z"/>
<path d="M2295 3817 c-108 -93 -211 -213 -274 -319 l-23 -38 181 0 181 0 0
205 c0 113 -1 205 -2 205 -2 0 -30 -24 -63 -53z"/>
<path d="M2610 3666 l0 -206 190 0 c112 0 190 4 190 9 0 18 -117 165 -187 236
-38 39 -97 92 -131 118 l-62 48 0 -205z"/>
<path d="M1131 3205 c-59 -74 -152 -361 -176 -542 l-7 -53 285 0 285 0 7 63
c17 170 39 302 68 417 l33 126 -244 0 c-154 0 -246 -4 -251 -11z"/>
<path d="M1872 3180 c-41 -96 -93 -359 -105 -527 l-3 -43 298 0 298 0 0 303 0
303 -236 0 -237 0 -15 -36z"/>
<path d="M2610 2913 l0 -303 325 0 325 0 0 28 c0 97 -60 375 -108 502 l-28 75
-257 1 -257 0 0 -303z"/>
<path d="M3394 3208 c-3 -5 1 -30 10 -56 47 -149 96 -404 96 -504 l0 -38 290
0 291 0 -7 53 c-18 153 -83 362 -158 507 l-23 45 -247 0 c-136 1 -250 -3 -252
-7z"/>
<path d="M955 2313 c17 -144 66 -318 130 -460 l28 -63 253 0 252 0 -28 109
c-25 96 -40 194 -66 414 l-6 57 -285 0 -285 0 7 -57z"/>
<path d="M1772 2273 c9 -111 50 -327 80 -420 l21 -63 243 0 244 0 0 290 0 290
-298 0 -298 0 8 -97z"/>
<path d="M2608 2080 l-3 -290 269 2 268 3 24 65 c43 119 94 377 94 476 l0 34
-325 0 -324 0 -3 -290z"/>
<path d="M3506 2348 c-2 -13 -11 -84 -20 -158 -13 -111 -57 -320 -82 -384 -5
-14 23 -16 250 -16 l256 0 29 58 c59 117 115 312 136 470 l7 52 -286 0 -286 0
-4 -22z"/>
<path d="M1280 1544 c0 -12 166 -177 230 -228 146 -117 302 -205 471 -264 l86
-30 -54 56 c-105 109 -212 268 -281 415 l-26 57 -213 0 c-117 0 -213 -3 -213
-6z"/>
<path d="M1980 1542 c0 -16 82 -147 129 -206 72 -90 219 -226 245 -226 3 0 6
99 6 220 l0 220 -190 0 c-104 0 -190 -3 -190 -8z"/>
<path d="M2610 1335 c0 -118 3 -215 7 -215 18 0 162 122 228 193 65 70 175
215 175 231 0 3 -92 6 -205 6 l-205 0 0 -215z"/>
<path d="M3249 1459 c-76 -133 -183 -272 -287 -372 -103 -98 -104 -97 64 -42
162 54 353 156 479 258 66 54 179 163 217 210 l30 37 -225 0 -225 0 -53 -91z"/>
</g>
</svg>
