<?xml version="1.0" standalone="no"?>
<!DOCTYPE svg PUBLIC "-//W3C//DTD SVG 20010904//EN"
 "http://www.w3.org/TR/2001/REC-SVG-20010904/DTD/svg10.dtd">
<svg version="1.0" xmlns="http://www.w3.org/2000/svg"
 width="2000.000000pt" height="2000.000000pt" viewBox="0 0 2000.000000 2000.000000"
 preserveAspectRatio="xMidYMid meet">
<metadata>
Created by potrace 1.16, written by Peter Selinger 2001-2019
</metadata>
<g transform="translate(0.000000,2000.000000) scale(0.400000,-0.400000)"
fill="#000000" stroke="none">
<path d="M2280 4974 c-91 -9 -296 -45 -389 -69 -442 -112 -813 -325 -1142
-654 -384 -384 -606 -818 -701 -1367 -30 -174 -32 -568 -5 -742 85 -534 311
-989 677 -1366 363 -373 797 -611 1300 -710 721 -143 1473 44 2045 509 121 98
323 307 413 427 231 309 382 646 456 1018 107 541 31 1098 -218 1594 -320 638
-915 1116 -1606 1291 -197 50 -331 66 -565 70 -121 1 -240 1 -265 -1z m1328
-1500 c42 -28 55 -77 48 -184 -17 -264 -252 -1708 -307 -1885 -14 -48 -32 -78
-63 -110 -42 -44 -44 -45 -107 -45 -50 0 -77 6 -124 29 -81 38 -807 528 -872
588 -77 71 -81 114 -20 195 18 24 150 152 292 285 143 134 322 305 398 382
121 122 138 143 135 167 -2 23 -9 30 -30 32 -34 4 -78 -24 -663 -416 -258
-173 -499 -329 -535 -346 -58 -28 -74 -31 -155 -30 -99 1 -178 19 -426 98
-200 63 -250 100 -227 168 15 41 75 78 259 159 1508 657 2052 881 2264 933 33
8 107 -3 133 -20z"/>
</g>
</svg>
