<?xml version="1.0" standalone="no"?>
<!DOCTYPE svg PUBLIC "-//W3C//DTD SVG 20010904//EN"
 "http://www.w3.org/TR/2001/REC-SVG-20010904/DTD/svg10.dtd">
<svg version="1.0" xmlns="http://www.w3.org/2000/svg"
 width="2000.000000pt" height="2000.000000pt" viewBox="0 0 2000.000000 2000.000000"
 preserveAspectRatio="xMidYMid meet">
<metadata>
Created by potrace 1.16, written by Peter Selinger 2001-2019
</metadata>
<g transform="translate(0.000000,2000.000000) scale(0.400000,-0.400000)"
fill="#000000" stroke="none">
<path d="M2280 4974 c-91 -9 -296 -45 -389 -69 -442 -112 -813 -325 -1142
-654 -384 -384 -606 -818 -701 -1367 -30 -174 -32 -568 -5 -742 85 -534 311
-989 677 -1366 363 -373 797 -611 1300 -710 721 -143 1473 44 2045 509 121 98
323 307 413 427 231 309 382 646 456 1018 107 541 31 1098 -218 1594 -320 638
-915 1116 -1606 1291 -197 50 -331 66 -565 70 -121 1 -240 1 -265 -1z m1090
-1255 c24 -5 47 -13 50 -17 3 -4 24 -16 48 -26 23 -11 42 -23 42 -28 0 -4 6
-8 14 -8 7 0 24 -10 38 -23 14 -13 41 -31 62 -41 20 -9 36 -21 36 -26 0 -6 9
-10 20 -10 11 0 20 4 20 8 0 5 34 16 75 26 41 10 75 21 75 25 0 4 29 15 65 26
36 10 65 22 65 26 0 6 53 29 66 29 2 0 4 -7 4 -15 0 -8 -4 -15 -8 -15 -5 0
-16 -19 -26 -41 -10 -23 -26 -50 -35 -60 -9 -10 -25 -30 -36 -45 -11 -15 -35
-42 -52 -61 -43 -44 -44 -73 -2 -73 39 0 119 20 119 30 0 4 13 10 29 13 16 3
40 9 55 13 34 8 33 -5 -4 -46 -16 -18 -30 -37 -30 -41 0 -6 -91 -99 -164 -167
-20 -19 -39 -45 -42 -58 -3 -13 -10 -24 -15 -24 -5 0 -9 -28 -9 -62 0 -78 -30
-321 -40 -328 -5 -3 -16 -45 -26 -95 -9 -49 -21 -92 -24 -95 -4 -3 -13 -31
-21 -64 -7 -32 -18 -63 -24 -70 -6 -6 -19 -38 -30 -71 -11 -33 -28 -69 -37
-79 -10 -11 -18 -25 -18 -32 0 -7 -6 -19 -12 -26 -7 -7 -23 -34 -36 -60 -13
-27 -26 -48 -30 -48 -4 0 -13 -13 -20 -29 -12 -28 -39 -64 -82 -107 -11 -12
-20 -25 -20 -29 0 -5 -20 -28 -45 -52 -25 -23 -45 -46 -45 -51 0 -5 -30 -35
-66 -68 -37 -32 -78 -71 -92 -86 -15 -16 -32 -28 -39 -28 -6 0 -18 -8 -25 -18
-7 -10 -29 -27 -48 -38 -19 -10 -38 -24 -43 -31 -4 -6 -23 -17 -42 -23 -19 -6
-35 -15 -35 -20 0 -5 -20 -16 -45 -26 -25 -9 -45 -20 -45 -24 0 -4 -28 -15
-62 -26 -35 -10 -68 -23 -75 -30 -6 -6 -40 -17 -75 -24 -35 -7 -66 -17 -69
-22 -6 -10 -147 -38 -189 -38 -16 0 -30 -6 -32 -12 -7 -19 -549 -19 -555 0 -3
6 -17 12 -33 12 -38 0 -184 30 -190 40 -3 4 -16 10 -30 13 -86 20 -120 31
-120 38 0 4 -25 16 -55 25 -30 10 -55 21 -55 25 0 4 -23 15 -50 25 -28 10 -50
21 -50 25 0 4 -13 12 -30 18 -33 11 -41 31 -12 31 80 0 347 22 351 28 4 5 45
16 94 26 48 10 87 21 87 25 0 4 27 15 60 24 33 10 60 21 60 25 0 4 20 16 45
27 25 11 45 22 45 26 0 3 20 14 45 24 48 20 67 45 35 45 -11 0 -20 4 -20 8 0
5 -31 16 -70 26 -38 10 -70 22 -70 26 0 5 -20 16 -45 26 -25 9 -45 20 -45 23
0 4 -16 13 -35 21 -19 8 -42 24 -50 37 -9 13 -20 23 -26 23 -14 0 -79 64 -79
78 0 6 -8 16 -18 21 -10 5 -24 28 -32 50 -7 23 -16 41 -20 41 -18 0 -16 39 1
54 15 12 43 16 122 17 56 1 94 3 85 6 -10 2 -18 8 -18 12 0 5 -21 16 -47 26
-26 10 -56 27 -67 37 -11 10 -26 18 -33 18 -7 0 -17 9 -23 20 -6 11 -16 20
-22 20 -14 0 -128 111 -128 125 0 6 -8 17 -18 26 -9 8 -26 42 -37 74 -11 33
-23 63 -28 66 -7 5 -37 146 -37 175 0 8 10 14 25 14 14 0 25 -4 25 -8 0 -9
124 -42 158 -42 39 0 26 33 -41 102 -25 24 -48 54 -51 66 -4 12 -11 22 -17 22
-10 0 -34 53 -44 101 -4 19 -11 36 -15 39 -5 3 -14 43 -20 89 -12 85 1 259 19
271 5 3 14 31 21 63 8 32 17 60 22 64 5 3 61 -47 124 -111 63 -64 119 -116
123 -116 4 0 16 -9 26 -20 10 -11 24 -20 30 -20 7 0 15 -7 19 -15 3 -8 17 -20
31 -25 14 -5 25 -14 25 -19 0 -6 17 -18 37 -28 21 -9 45 -25 55 -35 10 -10 25
-18 33 -18 7 0 18 -6 22 -13 4 -8 29 -22 56 -32 26 -10 47 -21 47 -25 0 -4 25
-15 55 -25 30 -9 55 -20 55 -24 0 -8 108 -41 133 -41 9 0 17 -4 17 -9 0 -8
147 -41 187 -41 12 0 23 -4 25 -9 2 -5 47 -13 101 -17 86 -6 97 -5 97 10 0 9
-4 16 -10 16 -6 0 -10 40 -10 100 0 60 4 100 10 100 6 0 10 12 10 28 0 36 27
134 38 141 6 3 17 22 25 42 14 35 33 62 69 100 9 10 21 27 28 38 6 12 17 21
25 21 8 0 22 11 31 25 9 14 21 25 28 25 6 0 24 11 40 25 15 13 45 29 65 36 20
7 38 15 41 19 17 26 290 40 380 19z"/>
</g>
</svg>
